/* XPM */
static const char *TOOLBAR_ZOOM_IN[] = {
/* columns rows colors chars-per-pixel */
"24 24 64 1 ",
"  c black",
". c #05E805E805E8",
"X c #0B020B020B02",
"o c #0D570D570D57",
"O c #101410141014",
"+ c #13F013F013F0",
"@ c #180118011801",
"# c #1F2F1F2F1F2F",
"$ c #214821482148",
"% c #261D261D261D",
"& c #27AB27AB27AB",
"* c #2D532D532D53",
"= c #323332333233",
"- c #376837683768",
"; c #3B223B223B22",
": c #3C683C683C68",
"> c #435643564356",
", c #446944694469",
"< c #4A684A684A68",
"1 c #4D3F4D3F4D3F",
"2 c #533B533B533B",
"3 c #553555355535",
"4 c #5A1B5A1B5A1B",
"5 c #5E1C5E1C5E1C",
"6 c #62F662F662F6",
"7 c #667366736673",
"8 c #6B9C6B9C6B9C",
"9 c #6D6A6D6A6D6A",
"0 c #734D734D734D",
"q c #756875687568",
"w c #784F784F784F",
"e c #7F677F677F67",
"r c #81C781C781C7",
"t c #860C860C860C",
"y c #8A5F8A5F8A5F",
"u c #8DB48DB48DB4",
"i c #907690769076",
"p c #94A894A894A8",
"a c #9AAC9AAC9AAC",
"s c #9FC49FC49FC4",
"d c #A278A278A278",
"f c #A76FA76FA76F",
"g c #ABA7ABA7ABA7",
"h c #AD7BAD7BAD7B",
"j c #B086B086B086",
"k c #B6A0B6A0B6A0",
"l c #B991B991B991",
"z c #BEF4BEF4BEF4",
"x c #C3CAC3CAC3CA",
"c c #C586C586C586",
"v c #C9E8C9E8C9E8",
"b c #CF02CF02CF02",
"n c #D0E5D0E5D0E5",
"m c #D7D3D7D3D7D3",
"M c #DAE5DAE5DAE5",
"N c #DD00DD00DD00",
"B c #E2E9E2E9E2E9",
"V c #E700E700E700",
"C c #E9DDE9DDE9DD",
"Z c #EFE9EFE9EFE9",
"A c #F339F339F339",
"S c #F731F731F731",
"D c #FBE2FBE2FBE2",
"F c white",
/* pixels */
"FFFFFFFFFFFFFFFFFFFFFFFF",
"FFFFFFFFFFFFFFFFFFFFFFFF",
"FFFFFFFFFFFFFFFFFFFFFFFF",
"FFFFFFF     FFFFFFFFFFFF",
"FFFFF+        FFFFFFFFFF",
"FFFF+  OFFF7   FFFFFFFFF",
"FFFF  FFM37FF  FFFFFFFFF",
"FFF  OFFb +FFz  FFFFFFFF",
"FFF  FMbh ObNF  FFFFFFFF",
"FFF  F4     4F  FFFFFFFF",
"FFF  F7@O  @7F  FFFFFFFF",
"FFF  7FFb @FFD  FFFFFFFF",
"FFFF  FFN48FF  FFFFFFFFF",
"FFFF   lFFFD   FFFFFFFFF",
"FFFFF           FFFFFFFF",
"FFFFFFF     FF   FFFFFFF",
"FFFFFFFFFFFFFFF   FFFFFF",
"FFFFFFFFFFFFFFFF   FFFFF",
"FFFFFFFFFFFFFFFFF   FFFF",
"FFFFFFFFFFFFFFFFFF   FFF",
"FFFFFFFFFFFFFFFFFFF FFFF",
"FFFFFFFFFFFFFFFFFFFFFFFF",
"FFFFFFFFFFFFFFFFFFFFFFFF",
"FFFFFFFFFFFFFFFFFFFFFFFF"
};
