/* XPM */
static const char *TOOLBAR_TEST_CONNECTION[] = {
/* columns rows colors chars-per-pixel */
"24 24 64 1 ",
"  c black",
". c #062D062D062D",
"X c #08CA08CA08CA",
"o c #0D090D090D09",
"O c #107610761076",
"+ c #13FC13FC13FC",
"@ c #180C180C180C",
"# c #1C841C841C84",
"$ c #212621262126",
"% c #273627362736",
"& c #28FE28FE28FE",
"* c #2D002D002D00",
"= c #320132013201",
"- c #368036803680",
"; c #384038403840",
": c #3E703E703E70",
"> c #40A040A040A0",
", c #475747574757",
"< c #4A854A854A85",
"1 c #4C324C324C32",
"2 c #514B514B514B",
"3 c #559D559D559D",
"4 c #59A659A659A6",
"5 c #5F7A5F7A5F7A",
"6 c #607260726072",
"7 c #64A564A564A5",
"8 c #686468646864",
"9 c #6C5D6C5D6C5D",
"0 c #715171517151",
"q c #76A676A676A6",
"w c #7B917B917B91",
"e c #7D837D837D83",
"r c #806580658065",
"t c #875887588758",
"y c #8AA88AA88AA8",
"u c #8EF18EF18EF1",
"i c #91CE91CE91CE",
"p c #952395239523",
"a c #9A889A889A88",
"s c #9F7E9F7E9F7E",
"d c #A379A379A379",
"f c #A7A9A7A9A7A9",
"g c #AAF0AAF0AAF0",
"h c #ADCAADCAADCA",
"j c #B35FB35FB35F",
"k c #B797B797B797",
"l c #BBA9BBA9BBA9",
"z c #BDFCBDFCBDFC",
"x c #C0B0C0B0C0B0",
"c c #C6B6C6B6C6B6",
"v c #CADFCADFCADF",
"b c #CD8ECD8ECD8E",
"n c #D1B8D1B8D1B8",
"m c #D4E9D4E9D4E9",
"M c #DAF0DAF0DAF0",
"N c #DFC9DFC9DFC9",
"B c #E0F8E0F8E0F8",
"V c #E517E517E517",
"C c #EB97EB97EB97",
"Z c #EFE2EFE2EFE2",
"A c #F2ECF2ECF2EC",
"S c #F5FBF5FBF5FB",
"D c #FA1FFA1FFA1F",
"F c white",
/* pixels */
"FFFFFFFFFFFFFFFFFFFFFFFF",
"FFFFFFFFFFFFFFFFFFFFFFFF",
"FFFFFFFFFFFFFFFFFFFFFFFF",
"FFF    FFFFFFFFFFFFFFFFF",
"FF:     FFFFFFFFFFFFFFFF",
"FF  FF         FFFFFFFFF",
"FF  FF          FFFFFFFF",
"FFo     FFFFFF   FFFFFFF",
"FFF    FFFFFFFF  FFFFFFF",
"FFFFFFFFFFFFFFF  FFFFFFF",
"FFFFFFFFFFFFFF#  FFFFFFF",
"FFFFFFFFF       FFFFFFFF",
"FFFFFFFF       FFFFFFFFF",
"FFFFFFF   FFFFFFFFFFFFFF",
"FFFFFFF  FFFFFFFFFFFFFFF",
"FFFFFFF  FFFFFFFF+   FFF",
"FFFFFFF   FFFFFF=     FF",
"FFFFFFFF              FF",
"FFFFFFFFF             FF",
"FFFFFFFFFFFFFFFF.     FF",
"FFFFFFFFFFFFFFFFF    FFF",
"FFFFFFFFFFFFFFFFFFFFFFFF",
"FFFFFFFFFFFFFFFFFFFFFFFF",
"FFFFFFFFFFFFFFFFFFFFFFFF"
};
