/* XPM */
static const char *TOOLBAR_ZOOM_OUT[] = {
/* columns rows colors chars-per-pixel */
"24 24 64 1 ",
"  c black",
". c #05E805E805E8",
"X c #0B020B020B02",
"o c #0D410D410D41",
"O c #101410141014",
"+ c #13F013F013F0",
"@ c #180018001800",
"# c #1F2F1F2F1F2F",
"$ c #214821482148",
"% c #263726372637",
"& c #27AB27AB27AB",
"* c #2D532D532D53",
"= c #323332333233",
"- c #376837683768",
"; c #3B223B223B22",
": c #3C683C683C68",
"> c #435643564356",
", c #446944694469",
"< c #4A684A684A68",
"1 c #4D3F4D3F4D3F",
"2 c #533B533B533B",
"3 c #551555155515",
"4 c #5A1B5A1B5A1B",
"5 c #5E1C5E1C5E1C",
"6 c #62F662F662F6",
"7 c #65BD65BD65BD",
"8 c #6B9C6B9C6B9C",
"9 c #6D6A6D6A6D6A",
"0 c #734D734D734D",
"q c #756875687568",
"w c #784F784F784F",
"e c #7F677F677F67",
"r c #81C781C781C7",
"t c #860C860C860C",
"y c #8A5F8A5F8A5F",
"u c #8DB48DB48DB4",
"i c #907690769076",
"p c #94A894A894A8",
"a c #9AAC9AAC9AAC",
"s c #9FC49FC49FC4",
"d c #A278A278A278",
"f c #A76FA76FA76F",
"g c #ABA7ABA7ABA7",
"h c #AD7BAD7BAD7B",
"j c #B086B086B086",
"k c #B6A0B6A0B6A0",
"l c #B991B991B991",
"z c #BEF4BEF4BEF4",
"x c #C3CAC3CAC3CA",
"c c #C586C586C586",
"v c #C9E8C9E8C9E8",
"b c #CF00CF00CF00",
"n c #D0D5D0D5D0D5",
"m c #D7D3D7D3D7D3",
"M c #DB22DB22DB22",
"N c #DD00DD00DD00",
"B c #E2E9E2E9E2E9",
"V c #E700E700E700",
"C c #E9EAE9EAE9EA",
"Z c #EFD4EFD4EFD4",
"A c #F339F339F339",
"S c #F731F731F731",
"D c #FBE2FBE2FBE2",
"F c white",
/* pixels */
"FFFFFFFFFFFFFFFFFFFFFFFF",
"FFFFFFFFFFFFFFFFFFFFFFFF",
"FFFFFFFFFFFFFFFFFFFFFFFF",
"FFFFFFF     FFFFFFFFFFFF",
"FFFFF+        FFFFFFFFFF",
"FFFF+  OFFF7   FFFFFFFFF",
"FFFF  FFFFFFF  FFFFFFFFF",
"FFF  OFFFFFFFl  FFFFFFFF",
"FFF  FFbbbbbFF  FFFFFFFF",
"FFF  FF     FF  FFFFFFFF",
"FFF  FF@@@@@FF  FFFFFFFF",
"FFF  7FFFFFFFD  FFFFFFFF",
"FFFF  FFFFFFF  FFFFFFFFF",
"FFFF   lFFFD   FFFFFFFFF",
"FFFFF           FFFFFFFF",
"FFFFFFF     FF   FFFFFFF",
"FFFFFFFFFFFFFFF   FFFFFF",
"FFFFFFFFFFFFFFFF   FFFFF",
"FFFFFFFFFFFFFFFFF   FFFF",
"FFFFFFFFFFFFFFFFFF   FFF",
"FFFFFFFFFFFFFFFFFFF FFFF",
"FFFFFFFFFFFFFFFFFFFFFFFF",
"FFFFFFFFFFFFFFFFFFFFFFFF",
"FFFFFFFFFFFFFFFFFFFFFFFF"
};
