/* XPM */
static const char *TOOLBAR_ADD_DEVICE[] = {
/* columns rows colors chars-per-pixel */
"24 24 51 1 ",
"  c black",
". c #03D303D303D3",
"X c #083A083A083A",
"o c #0AF60AF60AF6",
"O c #125F125F125F",
"+ c #160D160D160D",
"@ c #17F717F717F7",
"# c #1C501C501C50",
"$ c #269826982698",
"% c #294D294D294D",
"& c #2B432B432B43",
"* c #324932493249",
"= c #3BE33BE33BE3",
"- c #421542154215",
"; c #442444244424",
": c #495349534953",
"> c #518351835183",
", c gray34",
"< c #58E958E958E9",
"1 c #5C455C455C45",
"2 c #64A264A264A2",
"3 c #6BD76BD76BD7",
"4 c #7D8C7D8C7D8C",
"5 c #813D813D813D",
"6 c #835483548354",
"7 c #89E389E389E3",
"8 c #8EFF8EFF8EFF",
"9 c #934C934C934C",
"0 c #9A399A399A39",
"q c #9EDF9EDF9EDF",
"w c #A251A251A251",
"e c #A71CA71CA71C",
"r c #A9E1A9E1A9E1",
"t c #B40DB40DB40D",
"y c #B6EBB6EBB6EB",
"u c #BA44BA44BA44",
"i c #C43EC43EC43E",
"p c #C53BC53BC53B",
"a c #C8C9C8C9C8C9",
"s c #D013D013D013",
"d c #D1C0D1C0D1C0",
"f c gray83",
"g c #DC95DC95DC95",
"h c #DFEEDFEEDFEE",
"j c #E3A6E3A6E3A6",
"k c #EB07EB07EB07",
"l c #ECDBECDBECDB",
"z c #F2D7F2D7F2D7",
"x c #F527F527F527",
"c c #F9CEF9CEF9CE",
"v c white",
/* pixels */
"vvvvvvvvvvvvvvvvvvvvvvvv",
"vvvvvvvvvvvvvvvvvvvvvvvv",
"vvvvvvvvvvvvvvvvvvvvvvvv",
"vvv                  cvv",
"vv                    vv",
"vv  vvvvvvvvvvvvvvvv  vv",
"vv  vvvvvvvvvvvvvvvv  vv",
"vv  vvvvvvv  vvvvvvv  vv",
"vv  vvvvvvv  vvvvvvv  vv",
"vv  vvvvvvv  vvvvvvv  vv",
"vv  vvvv        vvvv  vv",
"vv  vvvv        vvvv  vv",
"vv  vvvvvvv  vvvvvvv  vv",
"vv  vvvvvvv  vvvvvvv  vv",
"vv  vvvvvvv  vvvvvvv  vv",
"vv  vvvvvvvvvvvvvvvv  vv",
"vv  vvvvvvvvvvvvvvvv  vv",
"vv                    vv",
"vvv                  cvv",
"vvvvvvvv        vvvvvvvv",
"vvvvvvvv        vvvvvvvv",
"vvvvvvvvvvvvvvvvvvvvvvvv",
"vvvvvvvvvvvvvvvvvvvvvvvv",
"vvvvvvvvvvvvvvvvvvvvvvvv"
};
