/* XPM */
static const char *TOOLBAR_SELECT[] = {
/* columns rows colors chars-per-pixel */
"24 24 64 1 ",
"  c black",
". c #072B072B072B",
"X c #08FF08FF08FF",
"o c #0E130E130E13",
"O c #133C133C133C",
"+ c #142914291429",
"@ c #17F917F917F9",
"# c #1C211C211C21",
"$ c #216C216C216C",
"% c #266126612661",
"& c #290629062906",
"* c #2F302F302F30",
"= c #30F030F030F0",
"- c #371D371D371D",
"; c #37F737F737F7",
": c #3BCF3BCF3BCF",
"> c #417141714171",
", c #459545954595",
"< c #487548754875",
"1 c #4D684D684D68",
"2 c #511251125112",
"3 c #54BE54BE54BE",
"4 c #59C759C759C7",
"5 c #5F3B5F3B5F3B",
"6 c #62E962E962E9",
"7 c #65FC65FC65FC",
"8 c #68FE68FE68FE",
"9 c #6D966D966D96",
"0 c #711071107110",
"q c #757675767576",
"w c #786578657865",
"e c #7E737E737E73",
"r c #82ED82ED82ED",
"t c #842C842C842C",
"y c #8A938A938A93",
"u c #8E168E168E16",
"i c #93C793C793C7",
"p c #94F694F694F6",
"a c #9A539A539A53",
"s c #9C659C659C65",
"d c #A3D2A3D2A3D2",
"f c #A56EA56EA56E",
"g c #AAF9AAF9AAF9",
"h c #AEE6AEE6AEE6",
"j c #B42DB42DB42D",
"k c #B677B677B677",
"l c #BB3FBB3FBB3F",
"z c #BFC4BFC4BFC4",
"x c #C12AC12AC12A",
"c c #C50EC50EC50E",
"v c #CA09CA09CA09",
"b c #CDE1CDE1CDE1",
"n c #D2ADD2ADD2AD",
"m c #D5FDD5FDD5FD",
"M c #D9ADD9ADD9AD",
"N c #DFEBDFEBDFEB",
"B c #E1C4E1C4E1C4",
"V c #E808E808E808",
"C c #E903E903E903",
"Z c #EED8EED8EED8",
"A c #F2F7F2F7F2F7",
"S c #F6F6F6F6F6F6",
"D c #F8C9F8C9F8C9",
"F c white",
/* pixels */
"FFFFFFFFFFFFFFFFFFFFFFFF",
"FFFFFFFFFFFFFFFFFFFFFFFF",
"FFFFFF=FFFFFFFFFFFFFFFFF",
"FFFFFF  FFFFFFFFFFFFFFFF",
"FFFFFF   FFFFFFFFFFFFFFF",
"FFFFFF    cFFFFFFFFFFFFF",
"FFFFFF  h   FFFFFFFFFFFF",
"FFFFFF  FF   FFFFFFFFFFF",
"FFFFFF  FFF   FFFFFFFFFF",
"FFFFFF  FFFF   &FFFFFFFF",
"FFFFFF  FFFFFg   FFFFFFF",
"FFFFFF  FF        FFFFFF",
"FFFFFF  F          kFFFF",
"FFFFFF       FFFFFFFFFFF",
"FFFFFF        FFFFFFFFFF",
"FFFFFF   FF   FFFFFFFFFF",
"FFFFFF   FF    FFFFFFFFF",
"FFFFFF  FFFF   FFFFFFFFF",
"FFFFFF FFFFF   uFFFFFFFF",
"FFFFFFVFFFFFM   FFFFFFFF",
"FFFFFFFFFFFFF   VFFFFFFF",
"FFFFFFFFFFFFFb FFFFFFFFF",
"FFFFFFFFFFFFFFFFFFFFFFFF",
"FFFFFFFFFFFFFFFFFFFFFFFF"
};
