/* XPM */
static const char *TOOLBAR_ADD_NOTE[] = {
/* columns rows colors chars-per-pixel */
"24 24 62 1 ",
"  c black",
". c #042404240424",
"X c #085008500850",
"o c #0D630D630D63",
"O c #107810781078",
"+ c #152615261526",
"@ c #17F717F717F7",
"# c #1AED1AED1AED",
"$ c #214D214D214D",
"% c #262B262B262B",
"& c #2A332A332A33",
"* c #2B762B762B76",
"= c #2FF42FF42FF4",
"- c #358E358E358E",
"; c #3A063A063A06",
": c #3C4F3C4F3C4F",
"> c #43A443A443A4",
", c #489848984898",
"< c #4EE44EE44EE4",
"1 c #578557855785",
"2 c #5A6C5A6C5A6C",
"3 c #5D135D135D13",
"4 c #618561856185",
"5 c #672D672D672D",
"6 c #690E690E690E",
"7 c #6C556C556C55",
"8 c #72D772D772D7",
"9 c #770877087708",
"0 c #7C9B7C9B7C9B",
"q c #7F4F7F4F7F4F",
"w c #826982698269",
"e c #840584058405",
"r c #8B108B108B10",
"t c #8EF18EF18EF1",
"y c #921092109210",
"u c #977797779777",
"i c #9A2A9A2A9A2A",
"p c #9CAC9CAC9CAC",
"a c #A271A271A271",
"s c #A71BA71BA71B",
"d c gray66",
"f c #AD13AD13AD13",
"g c #B2F7B2F7B2F7",
"h c #B5E1B5E1B5E1",
"j c gray72",
"k c #BE82BE82BE82",
"l c #C430C430C430",
"z c #C481C481C481",
"x c #CA27CA27CA27",
"c c #CFB9CFB9CFB9",
"v c #D3AED3AED3AE",
"b c #D4B5D4B5D4B5",
"n c #DB24DB24DB24",
"m c #DD3ADD3ADD3A",
"M c #E2EDE2EDE2ED",
"N c #E809E809E809",
"B c #E9F9E9F9E9F9",
"V c #EDF9EDF9EDF9",
"C c #F0FAF0FAF0FA",
"Z c #F764F764F764",
"A c #FB23FB23FB23",
"S c white",
/* pixels */
"SSSSSSSSSSSSSSSSSSSSSSSS",
"SSSSSSSSSSSSSSSSSSSSSSSS",
"SSSSS         :SSSSSSSSS",
"SSSS           >SSSSSSSS",
"SSSS  SSSSSSS   :SSSSSSS",
"SSSS  SSSSSSS    :SSSSSS",
"SSSS  SSSSSSS     :SSSSS",
"SSSS  SSSSSSS      >SSSS",
"SSSS  SSSSSSS       SSSS",
"SSSS  SSSSSSSSSSSS  SSSS",
"SSSS  SSSSS  SSSSS  SSSS",
"SSSS  SSSSS  SSSSS  SSSS",
"SSSS  SSSSS  SSSSS  SSSS",
"SSSS  SS        SS  SSSS",
"SSSS  SS        SS  SSSS",
"SSSS  SSSSS  SSSSS  SSSS",
"SSSS  SSSSS  SSSSS  SSSS",
"SSSS  SSSSS  SSSSS  SSSS",
"SSSS  SSSSSSSSSSSS  SSSS",
"SSSS  SSSSSSSSSSSS  SSSS",
"SSSS                SSSS",
"SSSSS              BSSSS",
"SSSSSSSSSSSSSSSSSSSSSSSS",
"SSSSSSSSSSSSSSSSSSSSSSSS"
};
