/* XPM */
static const char *TOOLBAR_ZOOM_FIT[] = {
/* columns rows colors chars-per-pixel */
"24 24 64 1 ",
"  c black",
". c #04E504E504E5",
"X c #0B0E0B0E0B0E",
"o c #0DE70DE70DE7",
"O c #130613061306",
"+ c #173417341734",
"@ c #17E017E017E0",
"# c #1C321C321C32",
"$ c #224522452245",
"% c #249524952495",
"& c gray17",
"* c #2E322E322E32",
"= c #30F530F530F5",
"- c #357535753575",
"; c #3B363B363B36",
": c #3C473C473C47",
"> c #418441844184",
", c #444044404440",
"< c #4A2F4A2F4A2F",
"1 c #4E1A4E1A4E1A",
"2 c #526052605260",
"3 c #55FC55FC55FC",
"4 c #5BC05BC05BC0",
"5 c #5E425E425E42",
"6 c #610661066106",
"7 c #665A665A665A",
"8 c #6B496B496B49",
"9 c #6C856C856C85",
"0 c #719071907190",
"q c #756675667566",
"w c #7B617B617B61",
"e c #7E577E577E57",
"r c #829F829F829F",
"t c #844E844E844E",
"y c #8A958A958A95",
"u c #8F908F908F90",
"i c #909D909D909D",
"p c #95B295B295B2",
"a c #9BB09BB09BB0",
"s c #9E879E879E87",
"d c #A261A261A261",
"f c #A4BBA4BBA4BB",
"g c #AB3AAB3AAB3A",
"h c #AF90AF90AF90",
"j c #B25EB25EB25E",
"k c #B63DB63DB63D",
"l c #BB79BB79BB79",
"z c #BD19BD19BD19",
"x c #C437C437C437",
"c c #C491C491C491",
"v c #C940C940C940",
"b c #CFB9CFB9CFB9",
"n c #D0CAD0CAD0CA",
"m c #D740D740D740",
"M c #D9E0D9E0D9E0",
"N c #DD82DD82DD82",
"B c #E12AE12AE12A",
"V c #E6DDE6DDE6DD",
"C c #EA13EA13EA13",
"Z c #ECD1ECD1ECD1",
"A c #F2C4F2C4F2C4",
"S c #F808F808F808",
"D c #FBFCFBFCFBFC",
"F c white",
/* pixels */
"FFFFFFFFFFFFFFFFFFFFFFFF",
"FFFFFFFFFFFFFFFFFFFFFFFF",
"FFFFFFFFFFFFFFFFFFFFFFFF",
"FFFD     FFFFFF     bFFF",
"FFF      FFFFFF      FFF",
"FFF  FFFFFFFFFFFFFF  FFF",
"FFF  FFFFFFFFFFFFFF  FFF",
"FFF  FFFF    SFFFFF  FFF",
"FFF  FFF      ;FFFF  FFF",
"FFFFFFF   FFS  FFFFFFFFF",
"FFFFFFF  FFFF  kFFFFFFFF",
"FFFFFFF  FFFFp 5FFFFFFFF",
"FFFFFFF  AFFF  FFFFFFFFF",
"FFFFFFFD  .a   FFFFFFFFF",
"FFFFFFFF;       FFFFFFFF",
"FFF  FFFFFk5FF   FF  FFF",
"FFF  FFFFFFFFFF  FF  FFF",
"FFF  FFFFFFFFFFFFFF  FFF",
"FFF  FFFFFFFFFFFFFF  FFF",
"FFF      FFFFFF      FFF",
"FFFb     FFFFFF     8FFF",
"FFFFFFFFFFFFFFFFFFFFFFFF",
"FFFFFFFFFFFFFFFFFFFFFFFF",
"FFFFFFFFFFFFFFFFFFFFFFFF"
};
